<?xml version="1.0" standalone="no"?>
<!DOCTYPE svg PUBLIC "-//W3C//DTD SVG 20010904//EN"
 "http://www.w3.org/TR/2001/REC-SVG-20010904/DTD/svg10.dtd">
<svg version="1.0" xmlns="http://www.w3.org/2000/svg"
 width="500.000000pt" height="500.000000pt" viewBox="0 0 500.000000 500.000000"
 preserveAspectRatio="xMidYMid meet">

<g transform="translate(0.000000,500.000000) scale(0.100000,-0.100000)"
fill="#000000" stroke="none">
<path d="M0 2500 l0 -2500 2500 0 2500 0 0 2500 0 2500 -2500 0 -2500 0 0
-2500z m1940 -281 c14 -22 24 -45 22 -51 -1 -5 2 -7 7 -4 12 8 23 -22 14 -37
-3 -7 -2 -9 2 -4 5 4 19 -11 32 -34 23 -42 30 -79 14 -79 -5 0 -11 -10 -15
-23 -6 -25 -52 -84 -59 -77 -18 21 -67 123 -62 130 4 6 -1 13 -9 16 -8 3 -32
36 -52 72 -20 37 -45 81 -55 97 l-18 31 77 2 77 3 25 -42z m-234 -51 c4 -15
10 -26 14 -23 4 3 10 -2 13 -9 4 -10 0 -14 -12 -13 -10 0 -18 6 -18 12 0 5
-11 29 -26 51 -14 23 -23 45 -19 48 9 10 41 -34 48 -66z m841 -5 c39 -18 72
-77 73 -125 l0 -28 -101 0 -101 0 14 -22 c22 -33 62 -43 100 -24 30 16 33 15
51 -3 23 -23 18 -33 -27 -55 -44 -21 -81 -20 -133 3 -51 23 -73 63 -73 128 0
111 98 173 197 126z m193 -13 c0 -17 2 -17 25 5 13 14 33 25 45 25 17 0 20 -6
20 -38 0 -34 -4 -39 -33 -50 -43 -16 -57 -47 -57 -127 l0 -65 -40 0 -40 0 0
134 0 135 33 3 c41 4 47 1 47 -22z m295 16 c47 -20 58 -47 63 -163 l5 -103
-42 0 c-22 0 -41 4 -41 9 0 6 -16 3 -37 -5 -92 -39 -181 47 -128 123 19 28 84
46 130 37 39 -7 45 4 18 31 -13 14 -28 16 -69 12 -54 -6 -64 1 -64 39 0 30
109 43 165 20z m-1374 -51 c40 -68 50 -95 43 -107 -4 -6 -2 -8 3 -5 6 4 18 -8
28 -26 27 -52 50 -92 56 -97 7 -6 29 -47 29 -54 0 -3 -33 -6 -74 -6 -65 0 -77
3 -90 22 -8 12 -12 26 -9 31 3 6 2 7 -4 4 -5 -3 -18 11 -28 31 -11 20 -32 57
-47 81 l-27 44 37 68 c20 38 41 68 46 66 4 -1 21 -25 37 -52z m639 43 c1 -7 1
-78 1 -157 0 -165 -5 -178 -80 -188 l-41 -6 0 37 c0 21 4 35 8 32 4 -2 14 -1
22 4 11 7 15 42 18 149 l4 141 34 0 c20 0 34 -5 34 -12z m-585 -528 c-3 -5
-13 -10 -21 -10 -19 0 -18 -10 4 -26 16 -12 16 -13 0 -14 -10 0 -18 -10 -21
-27 -2 -16 -5 -2 -6 30 -1 55 0 57 25 57 14 0 23 -4 19 -10z m95 -35 c0 -33 4
-45 15 -45 8 0 15 -4 15 -10 0 -5 -11 -10 -25 -10 -24 0 -25 3 -25 55 0 30 5
55 10 55 6 0 10 -20 10 -45z m117 -37 c-2 -18 -4 -6 -4 27 0 33 2 48 4 33 2
-15 2 -42 0 -60z m138 72 c18 15 19 7 4 -21 -8 -16 -7 -26 5 -44 18 -28 20
-35 7 -35 -5 0 -13 10 -17 22 l-7 22 -17 -22 c-26 -31 -33 -27 -15 8 12 22 13
35 5 49 -14 28 -12 36 5 21 12 -10 18 -10 30 0z"/>
<path d="M2458 2109 c-10 -5 -22 -19 -28 -29 -10 -19 -7 -20 50 -20 64 0 72 8
40 40 -22 22 -37 24 -62 9z"/>
<path d="M2930 2005 c-21 -25 -8 -50 28 -53 37 -4 62 12 62 38 0 31 -67 42
-90 15z"/>
</g>
</svg>
